<svg xmlns="http://www.w3.org/2000/svg" width="23.667" height="21.9" viewBox="0 0 23.667 21.9">
  <path id="Path" d="M21.642,12.5l-10.65,7.74L.342,12.5a.84.84,0,0,1-.3-.94l1.22-3.78L3.7.273a.42.42,0,0,1,.11-.16.43.43,0,0,1,.58,0,.42.42,0,0,1,.11.18l2.44,7.49h8.1l2.44-7.51a.42.42,0,0,1,.11-.16.43.43,0,0,1,.58,0,.42.42,0,0,1,.11.18l2.44,7.51,1.27,3.76A.84.84,0,0,1,21.642,12.5Z" transform="translate(0.821 0.858)" fill="none" stroke="#000" stroke-linecap="round" stroke-linejoin="round" stroke-miterlimit="10" stroke-width="1.6" opacity="0.5"/>
</svg>
